<svg xmlns="http://www.w3.org/2000/svg" xmlns:xlink="http://www.w3.org/1999/xlink" width="500" zoomAndPan="magnify" viewBox="0 0 375 374.999991" height="500" preserveAspectRatio="xMidYMid meet" version="1.0"><defs><g/><clipPath id="748c814907"><path d="M 89.117188 142 L 183 142 L 183 180 L 89.117188 180 Z M 89.117188 142 " clip-rule="nonzero"/></clipPath><clipPath id="2aa9ca9743"><path d="M 144 121.667969 L 187 121.667969 L 187 166 L 144 166 Z M 144 121.667969 " clip-rule="nonzero"/></clipPath><clipPath id="7a9249fa44"><path d="M 192 142 L 285.617188 142 L 285.617188 180 L 192 180 Z M 192 142 " clip-rule="nonzero"/></clipPath><clipPath id="0f51590342"><path d="M 188 121.667969 L 231 121.667969 L 231 166 L 188 166 Z M 188 121.667969 " clip-rule="nonzero"/></clipPath></defs><g clip-path="url(#748c814907)"><path fill="#57baab" d="M 89.339844 142.605469 L 108.386719 179.957031 L 97.445312 150.199219 C 97.445312 150.199219 156.917969 155.199219 182.851562 179.957031 C 182.851562 179.957031 173.328125 150.949219 89.339844 142.605469 Z M 89.339844 142.605469 " fill-opacity="1" fill-rule="nonzero"/></g><path fill="#57baab" d="M 119.917969 128.910156 L 119.917969 142.605469 C 162.582031 148.074219 186.121094 172.476562 186.121094 172.476562 C 168.921875 142.132812 119.917969 128.910156 119.917969 128.910156 Z M 119.917969 128.910156 " fill-opacity="1" fill-rule="nonzero"/><g clip-path="url(#2aa9ca9743)"><path fill="#57baab" d="M 144.992188 121.667969 L 144.992188 133.789062 C 172.109375 144.730469 186.082031 165.195312 186.082031 165.195312 C 176.515625 136.898438 144.992188 121.667969 144.992188 121.667969 Z M 144.992188 121.667969 " fill-opacity="1" fill-rule="nonzero"/></g><g clip-path="url(#7a9249fa44)"><path fill="#57baab" d="M 285.65625 142.605469 C 201.667969 150.949219 192.140625 179.957031 192.140625 179.957031 C 218.078125 155.199219 277.546875 150.199219 277.546875 150.199219 L 266.605469 179.957031 Z M 285.65625 142.605469 " fill-opacity="1" fill-rule="nonzero"/></g><path fill="#57baab" d="M 255.113281 128.910156 C 255.113281 128.910156 206.113281 142.09375 188.914062 172.4375 C 188.914062 172.4375 212.449219 148.035156 255.113281 142.566406 Z M 255.113281 128.910156 " fill-opacity="1" fill-rule="nonzero"/><g clip-path="url(#0f51590342)"><path fill="#57baab" d="M 230.003906 133.789062 L 230.003906 121.667969 C 230.003906 121.667969 198.476562 136.898438 188.914062 165.195312 C 188.914062 165.195312 202.886719 144.730469 230.003906 133.789062 Z M 230.003906 133.789062 " fill-opacity="1" fill-rule="nonzero"/></g><g fill="#57baab" fill-opacity="1"><g transform="translate(143.944002, 249.483557)"><g><path d="M 4.171875 0.09375 C 3.523438 0.09375 2.945312 -0.0195312 2.4375 -0.25 C 1.9375 -0.476562 1.539062 -0.796875 1.25 -1.203125 C 0.957031 -1.609375 0.804688 -2.078125 0.796875 -2.609375 L 2.15625 -2.609375 C 2.195312 -2.148438 2.382812 -1.765625 2.71875 -1.453125 C 3.050781 -1.140625 3.535156 -0.984375 4.171875 -0.984375 C 4.773438 -0.984375 5.25 -1.132812 5.59375 -1.4375 C 5.945312 -1.738281 6.125 -2.128906 6.125 -2.609375 C 6.125 -2.972656 6.019531 -3.269531 5.8125 -3.5 C 5.613281 -3.738281 5.359375 -3.921875 5.046875 -4.046875 C 4.742188 -4.171875 4.332031 -4.300781 3.8125 -4.4375 C 3.164062 -4.601562 2.648438 -4.769531 2.265625 -4.9375 C 1.878906 -5.101562 1.546875 -5.363281 1.265625 -5.71875 C 0.992188 -6.082031 0.859375 -6.570312 0.859375 -7.1875 C 0.859375 -7.71875 0.992188 -8.1875 1.265625 -8.59375 C 1.535156 -9.007812 1.914062 -9.328125 2.40625 -9.546875 C 2.894531 -9.773438 3.457031 -9.890625 4.09375 -9.890625 C 5 -9.890625 5.742188 -9.660156 6.328125 -9.203125 C 6.910156 -8.742188 7.242188 -8.132812 7.328125 -7.375 L 5.921875 -7.375 C 5.878906 -7.75 5.679688 -8.078125 5.328125 -8.359375 C 4.984375 -8.648438 4.53125 -8.796875 3.96875 -8.796875 C 3.425781 -8.796875 2.988281 -8.65625 2.65625 -8.375 C 2.320312 -8.101562 2.15625 -7.71875 2.15625 -7.21875 C 2.15625 -6.863281 2.253906 -6.570312 2.453125 -6.34375 C 2.660156 -6.125 2.910156 -5.957031 3.203125 -5.84375 C 3.492188 -5.726562 3.90625 -5.597656 4.4375 -5.453125 C 5.082031 -5.273438 5.597656 -5.097656 5.984375 -4.921875 C 6.378906 -4.742188 6.71875 -4.472656 7 -4.109375 C 7.28125 -3.753906 7.421875 -3.269531 7.421875 -2.65625 C 7.421875 -2.1875 7.289062 -1.738281 7.03125 -1.3125 C 6.78125 -0.894531 6.410156 -0.554688 5.921875 -0.296875 C 5.429688 -0.0351562 4.847656 0.09375 4.171875 0.09375 Z M 4.171875 0.09375 "/></g></g></g><g fill="#57baab" fill-opacity="1"><g transform="translate(153.291411, 249.483557)"><g><path d="M 2.359375 -9.765625 L 2.359375 0 L 1.078125 0 L 1.078125 -9.765625 Z M 2.359375 -9.765625 "/></g></g></g><g fill="#57baab" fill-opacity="1"><g transform="translate(157.86748, 249.483557)"><g><path d="M 8.75 0 L 7.46875 0 L 2.359375 -7.765625 L 2.359375 0 L 1.078125 0 L 1.078125 -9.765625 L 2.359375 -9.765625 L 7.46875 -2.015625 L 7.46875 -9.765625 L 8.75 -9.765625 Z M 8.75 0 "/></g></g></g><g fill="#57baab" fill-opacity="1"><g transform="translate(168.837982, 249.483557)"><g><path d="M 0.609375 -4.890625 C 0.609375 -5.835938 0.820312 -6.691406 1.25 -7.453125 C 1.675781 -8.210938 2.257812 -8.804688 3 -9.234375 C 3.738281 -9.671875 4.5625 -9.890625 5.46875 -9.890625 C 6.53125 -9.890625 7.457031 -9.628906 8.25 -9.109375 C 9.050781 -8.597656 9.632812 -7.875 10 -6.9375 L 8.46875 -6.9375 C 8.195312 -7.519531 7.804688 -7.96875 7.296875 -8.28125 C 6.785156 -8.601562 6.175781 -8.765625 5.46875 -8.765625 C 4.789062 -8.765625 4.179688 -8.601562 3.640625 -8.28125 C 3.097656 -7.96875 2.671875 -7.519531 2.359375 -6.9375 C 2.054688 -6.351562 1.90625 -5.671875 1.90625 -4.890625 C 1.90625 -4.109375 2.054688 -3.425781 2.359375 -2.84375 C 2.671875 -2.257812 3.097656 -1.804688 3.640625 -1.484375 C 4.179688 -1.171875 4.789062 -1.015625 5.46875 -1.015625 C 6.175781 -1.015625 6.785156 -1.171875 7.296875 -1.484375 C 7.804688 -1.796875 8.195312 -2.25 8.46875 -2.84375 L 10 -2.84375 C 9.632812 -1.90625 9.050781 -1.179688 8.25 -0.671875 C 7.457031 -0.171875 6.53125 0.078125 5.46875 0.078125 C 4.5625 0.078125 3.738281 -0.128906 3 -0.546875 C 2.257812 -0.972656 1.675781 -1.5625 1.25 -2.3125 C 0.820312 -3.070312 0.609375 -3.929688 0.609375 -4.890625 Z M 0.609375 -4.890625 "/></g></g></g><g fill="#57baab" fill-opacity="1"><g transform="translate(180.773951, 249.483557)"><g><path d="M 2.359375 -8.71875 L 2.359375 -5.453125 L 5.90625 -5.453125 L 5.90625 -4.40625 L 2.359375 -4.40625 L 2.359375 -1.046875 L 6.328125 -1.046875 L 6.328125 0 L 1.078125 0 L 1.078125 -9.765625 L 6.328125 -9.765625 L 6.328125 -8.71875 Z M 2.359375 -8.71875 "/></g></g></g><g fill="#57baab" fill-opacity="1"><g transform="translate(189.085943, 249.483557)"><g/></g></g><g fill="#57baab" fill-opacity="1"><g transform="translate(193.955853, 249.483557)"><g><path d="M 0.71875 -1.015625 C 1.894531 -1.972656 2.820312 -2.753906 3.5 -3.359375 C 4.175781 -3.972656 4.742188 -4.613281 5.203125 -5.28125 C 5.660156 -5.945312 5.890625 -6.601562 5.890625 -7.25 C 5.890625 -7.851562 5.742188 -8.332031 5.453125 -8.6875 C 5.160156 -9.039062 4.6875 -9.21875 4.03125 -9.21875 C 3.394531 -9.21875 2.898438 -9.015625 2.546875 -8.609375 C 2.203125 -8.210938 2.015625 -7.6875 1.984375 -7.03125 L 0.75 -7.03125 C 0.789062 -8.070312 1.109375 -8.875 1.703125 -9.4375 C 2.304688 -10.007812 3.078125 -10.296875 4.015625 -10.296875 C 4.972656 -10.296875 5.734375 -10.03125 6.296875 -9.5 C 6.867188 -8.96875 7.15625 -8.238281 7.15625 -7.3125 C 7.15625 -6.53125 6.921875 -5.773438 6.453125 -5.046875 C 5.992188 -4.316406 5.46875 -3.671875 4.875 -3.109375 C 4.289062 -2.554688 3.539062 -1.910156 2.625 -1.171875 L 7.453125 -1.171875 L 7.453125 -0.109375 L 0.71875 -0.109375 Z M 0.71875 -1.015625 "/></g></g></g><g fill="#57baab" fill-opacity="1"><g transform="translate(203.135353, 249.483557)"><g><path d="M 0.875 -5.171875 C 0.875 -6.773438 1.132812 -8.023438 1.65625 -8.921875 C 2.175781 -9.828125 3.085938 -10.28125 4.390625 -10.28125 C 5.691406 -10.28125 6.601562 -9.828125 7.125 -8.921875 C 7.644531 -8.023438 7.90625 -6.773438 7.90625 -5.171875 C 7.90625 -3.535156 7.644531 -2.265625 7.125 -1.359375 C 6.601562 -0.453125 5.691406 0 4.390625 0 C 3.085938 0 2.175781 -0.453125 1.65625 -1.359375 C 1.132812 -2.265625 0.875 -3.535156 0.875 -5.171875 Z M 6.65625 -5.171875 C 6.65625 -5.984375 6.597656 -6.671875 6.484375 -7.234375 C 6.378906 -7.796875 6.160156 -8.25 5.828125 -8.59375 C 5.492188 -8.9375 5.015625 -9.109375 4.390625 -9.109375 C 3.753906 -9.109375 3.269531 -8.9375 2.9375 -8.59375 C 2.613281 -8.25 2.394531 -7.796875 2.28125 -7.234375 C 2.175781 -6.671875 2.125 -5.984375 2.125 -5.171875 C 2.125 -4.328125 2.175781 -3.617188 2.28125 -3.046875 C 2.394531 -2.484375 2.613281 -2.023438 2.9375 -1.671875 C 3.269531 -1.328125 3.753906 -1.15625 4.390625 -1.15625 C 5.015625 -1.15625 5.492188 -1.328125 5.828125 -1.671875 C 6.160156 -2.023438 6.378906 -2.484375 6.484375 -3.046875 C 6.597656 -3.617188 6.65625 -4.328125 6.65625 -5.171875 Z M 6.65625 -5.171875 "/></g></g></g><g fill="#57baab" fill-opacity="1"><g transform="translate(213.056442, 249.483557)"><g><path d="M 0.71875 -1.015625 C 1.894531 -1.972656 2.820312 -2.753906 3.5 -3.359375 C 4.175781 -3.972656 4.742188 -4.613281 5.203125 -5.28125 C 5.660156 -5.945312 5.890625 -6.601562 5.890625 -7.25 C 5.890625 -7.851562 5.742188 -8.332031 5.453125 -8.6875 C 5.160156 -9.039062 4.6875 -9.21875 4.03125 -9.21875 C 3.394531 -9.21875 2.898438 -9.015625 2.546875 -8.609375 C 2.203125 -8.210938 2.015625 -7.6875 1.984375 -7.03125 L 0.75 -7.03125 C 0.789062 -8.070312 1.109375 -8.875 1.703125 -9.4375 C 2.304688 -10.007812 3.078125 -10.296875 4.015625 -10.296875 C 4.972656 -10.296875 5.734375 -10.03125 6.296875 -9.5 C 6.867188 -8.96875 7.15625 -8.238281 7.15625 -7.3125 C 7.15625 -6.53125 6.921875 -5.773438 6.453125 -5.046875 C 5.992188 -4.316406 5.46875 -3.671875 4.875 -3.109375 C 4.289062 -2.554688 3.539062 -1.910156 2.625 -1.171875 L 7.453125 -1.171875 L 7.453125 -0.109375 L 0.71875 -0.109375 Z M 0.71875 -1.015625 "/></g></g></g><g fill="#57baab" fill-opacity="1"><g transform="translate(222.235942, 249.483557)"><g><path d="M 0.5625 -2.25 L 0.5625 -3.21875 L 5.46875 -10.03125 L 7 -10.03125 L 7 -3.359375 L 8.40625 -3.359375 L 8.40625 -2.25 L 7 -2.25 L 7 0 L 5.734375 0 L 5.734375 -2.25 Z M 5.796875 -8.6875 L 2.03125 -3.359375 L 5.796875 -3.359375 Z M 5.796875 -8.6875 "/></g></g></g><g fill="#57baab" fill-opacity="1"><g transform="translate(118.606402, 225.907442)"><g><path d="M 21.15625 0 L 15 -9.25 L 9.59375 0 L 1.25 0 L 10.921875 -15.34375 L 1.03125 -30.1875 L 9.59375 -30.1875 L 15.65625 -21.0625 L 20.984375 -30.1875 L 29.328125 -30.1875 L 19.734375 -14.96875 L 29.71875 0 Z M 21.15625 0 "/></g></g></g><g fill="#57baab" fill-opacity="1"><g transform="translate(149.348664, 225.907442)"><g><path d="M 10.015625 -30.1875 L 10.015625 0 L 2.671875 0 L 2.671875 -30.1875 Z M 10.015625 -30.1875 "/></g></g></g><g fill="#57baab" fill-opacity="1"><g transform="translate(162.032527, 225.907442)"><g><path d="M 29.671875 0 L 22.3125 0 L 10.015625 -18.625 L 10.015625 0 L 2.671875 0 L 2.671875 -30.1875 L 10.015625 -30.1875 L 22.3125 -11.484375 L 22.3125 -30.1875 L 29.671875 -30.1875 Z M 29.671875 0 "/></g></g></g><g fill="#57baab" fill-opacity="1"><g transform="translate(194.365644, 225.907442)"><g><path d="M 21.453125 -5.328125 L 10.1875 -5.328125 L 8.390625 0 L 0.6875 0 L 11.609375 -30.1875 L 20.125 -30.1875 L 31.046875 0 L 23.265625 0 Z M 19.5625 -11.015625 L 15.828125 -22.0625 L 12.125 -11.015625 Z M 19.5625 -11.015625 "/></g></g></g><g fill="#57baab" fill-opacity="1"><g transform="translate(226.053817, 225.907442)"><g><path d="M 9.890625 -30.1875 L 9.890625 -12.125 C 9.890625 -10.320312 10.332031 -8.929688 11.21875 -7.953125 C 12.113281 -6.984375 13.421875 -6.5 15.140625 -6.5 C 16.859375 -6.5 18.175781 -6.984375 19.09375 -7.953125 C 20.007812 -8.929688 20.46875 -10.320312 20.46875 -12.125 L 20.46875 -30.1875 L 27.828125 -30.1875 L 27.828125 -12.171875 C 27.828125 -9.472656 27.25 -7.191406 26.09375 -5.328125 C 24.945312 -3.460938 23.40625 -2.054688 21.46875 -1.109375 C 19.539062 -0.171875 17.382812 0.296875 15 0.296875 C 12.625 0.296875 10.5 -0.164062 8.625 -1.09375 C 6.75 -2.03125 5.265625 -3.4375 4.171875 -5.3125 C 3.078125 -7.1875 2.53125 -9.472656 2.53125 -12.171875 L 2.53125 -30.1875 Z M 9.890625 -30.1875 "/></g></g></g></svg>